<?xml version="1.0" encoding="UTF-8"?>
<svg id="Calque_3" data-name="Calque 3" xmlns="http://www.w3.org/2000/svg" viewBox="0 0 800 800">
  <defs>
    <style>
      .cls-1 {
        fill: #296a00;
      }
    </style>
  </defs>
  <path d="m449.61,605.73v.27c.06-.03.12-.05.18-.08-.06-.06-.12-.13-.18-.19Zm0,0v.27c.06-.03.12-.05.18-.08-.06-.06-.12-.13-.18-.19Z"/>
  <path class="cls-1" d="m800.36,152.44c0-6.24-3.43-8.73-9.42-6.86-25.44,7.95-50.89,15.81-76.3,23.86-60.55,19.19-121.08,38.42-181.59,57.73-13.58,4.34-24.96,11.8-32.04,24.65-5.14,9.3-6.77,19.41-6.77,29.9.03,31.43.04,62.87-.05,94.3-.01,2.13-.57,4.45-1.53,6.36-15.4,30.63-30.91,61.2-46.39,91.8-11.15,22.04-22.2,44.13-33.5,66.09-3.4,6.6-7.56,12.62-12.38,18.15-4.83-5.52-8.99-11.55-12.38-18.15-11.3-21.96-22.35-44.05-33.5-66.09-15.48-30.6-30.99-61.17-46.39-91.8-.96-1.91-1.52-4.23-1.53-6.36-.09-31.43-.08-62.87-.05-94.3,0-10.49-1.63-20.6-6.77-29.9-7.09-12.85-18.46-20.32-32.04-24.65-60.51-19.31-121.05-38.54-181.59-57.73-25.4-8.05-50.86-15.91-76.3-23.86-5.99-1.87-9.42.62-9.42,6.86,0,3.01-.03,6.03,0,9.03.16,14.85,6.07,26.74,18.35,35.26,2.4,1.66,5.9,2.52,7.17,4.73,1.33,2.31.6,5.83.78,8.81.03.56.07,1.13.08,1.69.35,14.81,6.7,26.41,19.59,33.65,5.08,2.85,6.65,5.91,6.44,11.53-.6,16.31,6.38,29.03,20.34,37.38,4.36,2.61,5.97,5.19,5.75,10.27-.55,12.36,3.73,23.04,13.05,31.45,5.09,4.59,10.83,8.24,17.25,10.49,11.4,4.01,22.95,7.63,34.47,11.34,9.38,3.01,18.81,5.88,28.19,8.87,7.95,2.53,10.76,6.87,10.98,15.18.29,11.07-2.18,21.54-5.26,32.07-4.11,13.99-9.86,27.6-10.9,42.44-8.67,3.39-11.24,8.54-8.57,17.75,3.64,12.49,11.39,22.1,21.42,30.03,12.67,10.02,26.77,17.76,40.74,25.7,17.7,10.07,34.04,21.8,47.35,37.38,9.1,10.65,18.15,21.36,27.29,31.98,12.43,14.42,26.81,26.28,44.41,33.98,6.01,2.63,12.19,4.67,18.44,6.36,8.56,2.32,17.29,4,26.03,5.67,5.49,1.05,11.05,1.75,16.6,2.55,5.55-.8,11.1-1.5,16.6-2.55,8.74-1.67,17.47-3.35,26.03-5.67,6.25-1.69,12.43-3.73,18.44-6.36,17.6-7.7,31.98-19.57,44.41-33.98,9.14-10.62,18.19-21.33,27.29-31.98,13.31-15.58,29.65-27.31,47.35-37.38,13.97-7.93,28.07-15.68,40.74-25.7,10.03-7.93,17.78-17.54,21.42-30.03,2.67-9.22.1-14.36-8.57-17.75-1.04-14.83-6.8-28.45-10.9-42.44-3.09-10.53-5.56-20.99-5.26-32.07.22-8.31,3.02-12.64,10.98-15.18,9.38-2.99,18.81-5.86,28.19-8.87,11.52-3.71,23.07-7.33,34.47-11.34,6.42-2.25,12.17-5.9,17.25-10.49,9.32-8.41,13.6-19.09,13.05-31.45-.22-5.08,1.4-7.66,5.75-10.27,13.96-8.35,20.94-21.07,20.34-37.38-.21-5.62,1.37-8.68,6.44-11.53,12.88-7.25,19.23-18.84,19.59-33.65.01-.56.05-1.13.08-1.69.18-2.98-.55-6.49.78-8.81,1.27-2.21,4.77-3.08,7.17-4.73,12.28-8.52,18.19-20.4,18.35-35.26.03-3,0-6.01,0-9.03Zm-294.04,123.94c.26-9.84,3.48-18.83,10.45-26.11,5.66-5.94,12.76-9.51,20.47-11.95,33.9-10.74,67.8-21.46,101.7-32.2,7.77-2.45,15.53-4.91,23.32-7.37,1.4,7.69-1.71,16.87-7.79,23.09-4.96,5.07-10.96,8.56-17.63,10.81-6.66,2.24-13.44,4.18-20.15,6.27-27.35,8.45-54.71,16.88-82.02,25.44-1.72.54-3.5,1.93-4.5,3.42-1.34,2-.83,4.39.78,6.28,1.87,2.17,4.2,2.49,6.91,1.65,27.16-8.41,54.32-16.78,81.49-25.16,5.63-1.74,11.26-3.46,17.15-5.27.54,10.41-1.49,19.45-9.5,26.31-4.7,4.02-10.15,6.74-16.03,8.58-25.46,7.91-50.92,15.74-76.34,23.74-1.72.54-3.49,1.94-4.48,3.44-1.33,2.01-.8,4.42.81,6.28,1.78,2.02,4.01,2.49,6.65,1.67,19.9-6.17,39.81-12.3,59.71-18.44,4.27-1.31,8.55-2.62,13.09-4.01.55,8.71-.52,16.55-5.92,23.25-5.07,6.29-11.81,10.2-19.34,12.59-16.45,5.24-32.98,10.23-49.47,15.32-.72.22-1.45.41-2.15.68-3.21,1.24-4.72,4.37-3.66,7.53,1.02,3.02,3.97,4.69,7.17,3.73,10.79-3.24,21.55-6.59,32.32-9.89,4.89-1.5,9.79-3,14.94-4.59.39,5.56-.16,10.53-2.17,15.29-3.25,7.7-9.36,12.5-16.51,16.28-2.54,1.34-5.09,2.06-8.04,2.04-16.08-.13-32.18-.06-48.28-.06h-3.2v-3.74c0-16.94-.02-33.88,0-50.82.02-14.69-.18-29.38.21-44.04Zm-25.72,156.43c13.08,5.68,25.29,12.43,37.27,20.46-28.56,38.27-56.92,76.25-85.18,114.11-5.63-3.46-10.95-6.73-15.61-9.6,21.19-41.69,42.3-83.24,63.52-124.97ZM138.49,198.75c7.79,2.46,15.55,4.92,23.32,7.37,33.9,10.74,67.8,21.46,101.7,32.2,7.71,2.44,14.81,6,20.47,11.95,6.96,7.29,10.18,16.27,10.45,26.11.39,14.67.19,29.36.21,44.04.02,16.94,0,33.88,0,50.82v3.74h-3.2c-16.1,0-32.19-.06-48.28.06-2.95.02-5.49-.7-8.04-2.04-7.15-3.78-13.26-8.58-16.51-16.28-2.01-4.76-2.55-9.74-2.17-15.29,5.15,1.58,10.05,3.09,14.94,4.59,10.77,3.3,21.53,6.65,32.32,9.89,3.2.96,6.15-.71,7.17-3.73,1.06-3.16-.45-6.29-3.66-7.53-.7-.27-1.43-.46-2.15-.68-16.49-5.1-33.02-10.08-49.47-15.32-7.53-2.4-14.27-6.31-19.34-12.59-5.4-6.69-6.47-14.53-5.92-23.25,4.55,1.4,8.82,2.7,13.09,4.01,19.9,6.14,39.81,12.27,59.71,18.44,2.64.82,4.87.35,6.65-1.67,1.62-1.86,2.15-4.26.81-6.28-.99-1.5-2.76-2.9-4.48-3.44-25.41-8-50.88-15.82-76.34-23.74-5.88-1.83-11.33-4.56-16.03-8.58-8.01-6.86-10.04-15.9-9.5-26.31,5.89,1.81,11.52,3.53,17.15,5.27,27.17,8.38,54.33,16.75,81.49,25.16,2.71.84,5.05.52,6.91-1.65,1.62-1.89,2.13-4.27.78-6.28-1-1.49-2.78-2.88-4.5-3.42-27.31-8.56-54.67-16.98-82.02-25.44-6.71-2.08-13.49-4.02-20.15-6.27-6.67-2.25-12.67-5.74-17.63-10.81-6.08-6.22-9.18-15.4-7.79-23.09Zm-118.15-16.34c-6.15-6.44-8.39-14.24-7.91-23.35,1.37.33,2.52.54,3.64.9,35.86,11.34,71.71,22.71,107.58,34.03,1.88.59,2.77,1.29,2.66,3.45-.45,8.67.82,17.03,5.56,25.33-15.09-4.65-29.34-9.02-43.57-13.42-14.97-4.62-29.95-9.23-44.89-13.93-8.59-2.7-16.7-6.35-23.06-13.01Zm28.55,50.5c-8.74-6.27-10.9-15.68-10.29-26.48,6.99,2.15,13.53,4.13,20.06,6.14,30.28,9.35,60.57,18.73,90.87,28.05,1.96.59,2.91,1.32,2.81,3.62-.38,8.71.49,17.25,4.92,25.8-2.88-.88-5.14-1.54-7.4-2.24-28.03-8.69-56.13-17.21-84.06-26.23-5.96-1.92-11.81-5-16.91-8.66Zm30.23,51.34c-11.35-6.61-15.61-16.97-14.32-30.28,7.78,2.39,15.29,4.68,22.8,7.01,29.29,9.05,58.57,18.14,87.89,27.12,2.13.66,3,1.51,2.9,3.88-.39,9.1.5,18.02,5.32,26.63-1.41-.31-2.37-.46-3.28-.74-28.31-8.75-56.65-17.4-84.89-26.35-5.68-1.8-11.26-4.27-16.41-7.27Zm97.01,71.56c-18.04-5.72-36.15-11.29-54.21-16.99-8.75-2.76-17.15-6.25-23.64-13.08-6.08-6.4-8.16-14.14-7.54-23.14,13.37,4.12,26.36,8.1,39.34,12.11,23.75,7.33,47.47,14.7,71.25,21.94,2.4.73,3.24,1.74,3.14,4.28-.42,10.49,1.42,20.4,8.07,28.94,1.25,1.59,2.64,3.09,4.24,4.95-1.18.07-1.97.15-2.76.16-4.98.01-9.98-.18-14.94.06-3.17.16-4.75-.47-6.01-3.9-2.88-7.86-9.01-12.82-16.94-15.33Zm11.28,122.63c-7.8-9.89-10.67-20.86-6.86-33.25,3.69-12.01,7.17-24.08,10.76-36.12.21-.69.48-1.36,1.01-2.84,9.1,28.5,15.39,56.69,15.89,86.91-7.39-5.3-15.51-8.01-20.8-14.7Zm19.27-84.56h3.36c28.96,0,57.92.03,86.89-.06,2.34,0,3.46.78,4.49,2.8,3.38,6.69,6.99,13.26,10.65,20.14-32.78,14.59-61.22,35.15-86.64,61.23-2.25-29.17-9.19-56.67-18.75-84.11Zm141.97,217.52c-.06-.03-.13-.05-.19-.08.06-.06.13-.14.19-.2v.28Zm-15.76-9.42c-5.39-3.45-10.29-7.77-14.54-12.83-12.62-15.07-25.12-30.25-37.93-45.16-10.9-12.72-24.66-21.97-38.75-30.75-4.93-3.08-9.93-6.07-15.24-9.3,12.59-15.09,26.48-28.25,41.91-40.23,28.69,38.43,57.3,76.78,85.88,115.05-7.11,7.75-14.15,15.41-21.32,23.22Zm-50.02-148.7c11.98-8.04,24.18-14.78,37.27-20.46,21.21,41.73,42.32,83.28,63.52,124.97-4.66,2.87-9.98,6.14-15.61,9.6-28.26-37.85-56.62-75.84-85.18-114.11Zm135.37,170.82c-6.01.85-11.97.69-17.88-.01-5.91.7-11.86.87-17.88.01-5.61-.79-10.32-3.1-14.65-6.23-2.56-1.86-5-4.01-7.42-6.32,1.58-1.67,2.9-3.25,4.42-4.61,11.84-10.55,23.75-21.02,35.53-31.63,11.78,10.61,23.68,21.08,35.53,31.63,1.52,1.36,2.84,2.94,4.42,4.61-2.42,2.3-4.86,4.46-7.42,6.32-4.33,3.14-9.04,5.44-14.65,6.23Zm33.84-12.69v-.28c.06.06.13.14.19.2-.06.03-.13.05-.19.08Zm106.99-98.17c-14.08,8.78-27.84,18.03-38.75,30.75-12.81,14.91-25.31,30.09-37.93,45.16-4.25,5.07-9.15,9.38-14.54,12.83-7.17-7.81-14.21-15.47-21.32-23.22,28.57-38.28,57.19-76.62,85.88-115.05,15.43,11.98,29.31,25.13,41.91,40.23-5.31,3.23-10.31,6.22-15.24,9.3Zm16.23-35.23c-25.41-26.08-53.85-46.64-86.64-61.23,3.66-6.88,7.28-13.45,10.65-20.14,1.03-2.02,2.16-2.8,4.49-2.8,28.97.09,57.93.06,86.89.06h3.36c-9.56,27.45-16.5,54.95-18.75,84.11Zm44.89-32.81c3.82,12.39.94,23.36-6.86,33.25-5.29,6.69-13.41,9.4-20.8,14.7.5-30.22,6.79-58.41,15.89-86.91.53,1.48.8,2.15,1.01,2.84,3.59,12.04,7.07,24.11,10.76,36.12Zm82.27-119.45c-6.49,6.83-14.9,10.32-23.64,13.08-18.06,5.7-36.16,11.27-54.21,16.99-7.93,2.51-14.06,7.47-16.94,15.33-1.26,3.43-2.85,4.06-6.01,3.9-4.96-.24-9.96-.05-14.94-.06-.79-.01-1.58-.08-2.76-.16,1.61-1.87,2.99-3.36,4.24-4.95,6.65-8.54,8.49-18.45,8.07-28.94-.1-2.54.74-3.55,3.14-4.28,23.78-7.25,47.5-14.62,71.25-21.94,12.98-4.01,25.97-8,39.34-12.11.63,9.01-1.46,16.74-7.54,23.14Zm19.16-41.49c-5.15,2.99-10.73,5.46-16.41,7.27-28.24,8.95-56.57,17.61-84.89,26.35-.92.28-1.88.43-3.28.74,4.82-8.61,5.7-17.53,5.32-26.63-.1-2.37.77-3.22,2.9-3.88,29.31-8.99,58.6-18.08,87.89-27.12,7.51-2.32,15.02-4.62,22.8-7.01,1.28,13.31-2.97,23.67-14.32,30.28Zm30.23-51.34c-5.1,3.66-10.95,6.74-16.91,8.66-27.94,9.02-56.03,17.53-84.06,26.23-2.26.7-4.52,1.37-7.4,2.24,4.43-8.55,5.3-17.09,4.92-25.8-.09-2.29.85-3.02,2.81-3.62,30.3-9.32,60.59-18.7,90.87-28.05,6.53-2.01,13.06-3.99,20.06-6.14.62,10.8-1.55,20.21-10.29,26.48Zm28.55-50.5c-6.36,6.66-14.47,10.31-23.06,13.01-14.94,4.7-29.92,9.31-44.89,13.93-14.23,4.4-28.48,8.77-43.57,13.42,4.73-8.3,6-16.66,5.56-25.33-.11-2.16.78-2.86,2.66-3.45,35.87-11.31,71.72-22.68,107.58-34.03,1.12-.35,2.27-.56,3.64-.9.48,9.11-1.76,16.91-7.91,23.35Z"/>
</svg>